ffmpeg started on 2016-12-12 at 01:18:24
Report written to "Output/theora/results/ffmpeg/sintel1500k.log"
Command line:
Tools/ffmpeg/ffmpeg -benchmark -y -i Input/y4m/sintel.y4m -c:v libtheora -b:v 1500k -an Output/theora/encoded/sintel1500k.mkv
ffmpeg version N-82227-gdb23fde Copyright (c) 2000-2016 the FFmpeg developers
  built with gcc 5.4.0 (Ubuntu 5.4.0-6ubuntu1~16.04.2) 20160609
  configuration: --prefix=/home/jaroslav/ffmpeg_build --pkg-config-flags=--static --extra-cflags=-I/home/jaroslav/ffmpeg_build/include --extra-ldflags=-L/home/jaroslav/ffmpeg_build/lib --bindir=/home/jaroslav/bin --enable-gpl --enable-libass --enable-libfdk-aac --enable-libfreetype --enable-libmp3lame --enable-libopus --enable-libtheora --enable-libvorbis --enable-libvpx --enable-libx264 --enable-libx265 --enable-nvenc --enable-libmfx --enable-libxvid --enable-libgsm --enable-libopencore-amrnb --enable-version3 --enable-nonfree
  libavutil      55. 35.100 / 55. 35.100
  libavcodec     57. 66.101 / 57. 66.101
  libavformat    57. 57.100 / 57. 57.100
  libavdevice    57.  2.100 / 57.  2.100
  libavfilter     6. 66.100 /  6. 66.100
  libswscale      4.  3.100 /  4.  3.100
  libswresample   2.  4.100 /  2.  4.100
  libpostproc    54.  2.100 / 54.  2.100
Input #0, yuv4mpegpipe, from 'Input/y4m/sintel.y4m':
  Duration: 00:00:20.83, start: 0.000000, bitrate: 2057307 kb/s
    Stream #0:0: Video: rawvideo (I420 / 0x30323449), yuv420p(progressive), 4096x1744, SAR 1:1 DAR 256:109, 24 fps, 24 tbr, 24 tbn, 24 tbc
Output #0, matroska, to 'Output/theora/encoded/sintel1500k.mkv':
  Metadata:
    encoder         : Lavf57.57.100
    Stream #0:0: Video: theora (libtheora) (theo / 0x6F656874), yuv420p, 4096x1744 [SAR 1:1 DAR 256:109], q=2-31, 1500 kb/s, 24 fps, 1k tbn, 24 tbc
    Metadata:
      encoder         : Lavc57.66.101 libtheora
Stream mapping:
  Stream #0:0 -> #0:0 (rawvideo (native) -> theora (libtheora))
Press [q] to stop, [?] for help
frame=    3 fps=0.0 q=-0.0 size=       4kB time=00:00:00.08 bitrate= 380.5kbits/s speed=0.132x    frame=    5 fps=4.1 q=-0.0 size=       4kB time=00:00:00.16 bitrate= 190.2kbits/s speed=0.137x    frame=    7 fps=3.8 q=-0.0 size=       4kB time=00:00:00.25 bitrate= 127.3kbits/s speed=0.138x    frame=    9 fps=3.7 q=-0.0 size=       4kB time=00:00:00.33 bitrate=  95.7kbits/s speed=0.138x    frame=   11 fps=3.6 q=-0.0 size=       4kB time=00:00:00.41 bitrate=  76.5kbits/s speed=0.137x    frame=   13 fps=3.6 q=-0.0 size=     387kB time=00:00:00.50 bitrate=6322.7kbits/s speed=0.137x    frame=   16 fps=2.0 q=-0.0 size=     387kB time=00:00:00.62 bitrate=5060.2kbits/s speed=0.0799x    frame=   17 fps=1.4 q=-0.0 size=     387kB time=00:00:00.66 bitrate=4742.0kbits/s speed=0.0569x    frame=   18 fps=1.3 q=-0.0 size=     387kB time=00:00:00.70 bitrate=4467.8kbits/s speed=0.0517x    frame=   20 fps=1.4 q=-0.0 size=     473kB time=00:00:00.79 bitrate=4887.3kbits/s speed=0.055x    frame=   22 fps=1.5 q=-0.0 size=     473kB time=00:00:00.87 bitrate=4424.2kbits/s speed=0.0581x    frame=   24 fps=1.5 q=-0.0 size=     473kB time=00:00:00.95 bitrate=4041.3kbits/s speed=0.0611x    frame=   26 fps=1.6 q=-0.0 size=     518kB time=00:00:01.04 bitrate=4071.8kbits/s speed=0.0637x    frame=   28 fps=1.7 q=-0.0 size=     518kB time=00:00:01.12 bitrate=3771.6kbits/s speed=0.0664x    frame=   30 fps=1.7 q=-0.0 size=     518kB time=00:00:01.20 bitrate=3512.7kbits/s speed=0.0689x    frame=   32 fps=1.8 q=-0.0 size=     518kB time=00:00:01.29 bitrate=3284.5kbits/s speed=0.0713x    frame=   34 fps=1.8 q=-0.0 size=     518kB time=00:00:01.37 bitrate=3086.4kbits/s speed=0.0734x    frame=   36 fps=1.9 q=-0.0 size=     518kB time=00:00:01.45 bitrate=2910.8kbits/s speed=0.0754x    frame=   39 fps=1.9 q=-0.0 size=     631kB time=00:00:01.58 bitrate=3263.0kbits/s speed=0.0789x    frame=   41 fps=2.0 q=-0.0 size=     631kB time=00:00:01.66 bitrate=3098.7kbits/s speed=0.0807x    frame=   43 fps=2.0 q=-0.0 size=     631kB time=00:00:01.75 bitrate=2951.8kbits/s speed=0.0823x    frame=   45 fps=2.1 q=-0.0 size=     631kB time=00:00:01.83 bitrate=2818.2kbits/s speed=0.0839x    frame=   47 fps=2.1 q=-0.0 size=     631kB time=00:00:01.91 bitrate=2694.8kbits/s speed=0.0854x    frame=   49 fps=2.1 q=-0.0 size=     736kB time=00:00:02.00 bitrate=3013.6kbits/s speed=0.0868x    frame=   52 fps=2.2 q=-0.0 size=     736kB time=00:00:02.12 bitrate=2836.4kbits/s speed=0.0894x    frame=   54 fps=2.2 q=-0.0 size=     736kB time=00:00:02.20 bitrate=2729.9kbits/s speed=0.0907x    frame=   56 fps=2.2 q=-0.0 size=     771kB time=00:00:02.29 bitrate=2755.9kbits/s speed=0.0919x    frame=   58 fps=2.3 q=-0.0 size=     771kB time=00:00:02.37 bitrate=2659.6kbits/s speed=0.0923x    frame=   60 fps=2.3 q=-0.0 size=     812kB time=00:00:02.45 bitrate=2704.2kbits/s speed=0.0931x    frame=   62 fps=2.3 q=-0.0 size=     812kB time=00:00:02.54 bitrate=2614.9kbits/s speed=0.0936x    frame=   64 fps=2.3 q=-0.0 size=     812kB time=00:00:02.62 bitrate=2532.3kbits/s speed=0.094x    frame=   66 fps=2.3 q=-0.0 size=     853kB time=00:00:02.70 bitrate=2579.1kbits/s speed=0.0946x    frame=   68 fps=2.3 q=-0.0 size=     853kB time=00:00:02.79 bitrate=2501.6kbits/s speed=0.095x    frame=   70 fps=2.3 q=-0.0 size=     880kB time=00:00:02.87 bitrate=2507.9kbits/s speed=0.0957x    frame=   72 fps=2.3 q=-0.0 size=     909kB time=00:00:02.95 bitrate=2516.9kbits/s speed=0.0961x    frame=   74 fps=2.3 q=-0.0 size=     909kB time=00:00:03.04 bitrate=2447.4kbits/s speed=0.0965x    frame=   76 fps=2.4 q=-0.0 size=     935kB time=00:00:03.12 bitrate=2450.9kbits/s speed=0.0968x    frame=   78 fps=2.4 q=-0.0 size=     935kB time=00:00:03.20 bitrate=2387.5kbits/s speed=0.0971x    frame=   80 fps=2.4 q=-0.0 size=     962kB time=00:00:03.29 bitrate=2392.3kbits/s speed=0.0975x    frame=   82 fps=2.4 q=-0.0 size=     989kB time=00:00:03.37 bitrate=2399.5kbits/s speed=0.0978x    frame=   84 fps=2.4 q=-0.0 size=     989kB time=00:00:03.45 bitrate=2341.9kbits/s speed=0.098x    frame=   86 fps=2.4 q=-0.0 size=    1018kB time=00:00:03.54 bitrate=2352.7kbits/s speed=0.0983x    frame=   88 fps=2.4 q=-0.0 size=    1018kB time=00:00:03.62 bitrate=2298.8kbits/s speed=0.0986x    frame=   90 fps=2.4 q=-0.0 size=    1048kB time=00:00:03.70 bitrate=2314.7kbits/s speed=0.0988x    frame=   92 fps=2.4 q=-0.0 size=    1048kB time=00:00:03.79 bitrate=2263.5kbits/s speed=0.099x    frame=   94 fps=2.4 q=-0.0 size=    1048kB time=00:00:03.87 bitrate=2215.0kbits/s speed=0.0992x    frame=   96 fps=2.4 q=-0.0 size=    1048kB time=00:00:03.95 bitrate=2168.6kbits/s speed=0.0997x    frame=   98 fps=2.4 q=-0.0 size=    1082kB time=00:00:04.04 bitrate=2191.6kbits/s speed= 0.1x    frame=  100 fps=2.4 q=-0.0 size=    1082kB time=00:00:04.12 bitrate=2147.5kbits/s speed= 0.1x    frame=  102 fps=2.4 q=-0.0 size=    1116kB time=00:00:04.20 bitrate=2172.0kbits/s speed=0.101x    frame=  104 fps=2.4 q=-0.0 size=    1116kB time=00:00:04.29 bitrate=2129.5kbits/s speed=0.101x    frame=  106 fps=2.5 q=-0.0 size=    1150kB time=00:00:04.37 bitrate=2153.7kbits/s speed=0.102x    frame=  108 fps=2.5 q=-0.0 size=    1150kB time=00:00:04.45 bitrate=2113.7kbits/s speed=0.102x    frame=  110 fps=2.5 q=-0.0 size=    1185kB time=00:00:04.54 bitrate=2135.9kbits/s speed=0.102x    frame=  112 fps=2.5 q=-0.0 size=    1185kB time=00:00:04.62 bitrate=2097.6kbits/s speed=0.102x    frame=  114 fps=2.5 q=-0.0 size=    1185kB time=00:00:04.70 bitrate=2060.6kbits/s speed=0.103x    frame=  116 fps=2.5 q=-0.0 size=    1247kB time=00:00:04.79 bitrate=2131.9kbits/s speed=0.103x    frame=  118 fps=2.5 q=-0.0 size=    1247kB time=00:00:04.87 bitrate=2095.6kbits/s speed=0.103x    frame=  120 fps=2.5 q=-0.0 size=    1247kB time=00:00:04.95 bitrate=2060.5kbits/s speed=0.103x    frame=  122 fps=2.5 q=-0.0 size=    1247kB time=00:00:05.04 bitrate=2026.2kbits/s speed=0.103x    frame=  124 fps=2.5 q=-0.0 size=    1247kB time=00:00:05.12 bitrate=1993.4kbits/s speed=0.104x    frame=  126 fps=2.5 q=-0.0 size=    1294kB time=00:00:05.20 bitrate=2035.1kbits/s speed=0.104x    frame=  128 fps=2.5 q=-0.0 size=    1294kB time=00:00:05.29 bitrate=2002.8kbits/s speed=0.104x    frame=  130 fps=2.5 q=-0.0 size=    1340kB time=00:00:05.37 bitrate=2041.6kbits/s speed=0.104x    frame=  132 fps=2.5 q=-0.0 size=    1340kB time=00:00:05.45 bitrate=2010.6kbits/s speed=0.104x    frame=  134 fps=2.5 q=-0.0 size=    1340kB time=00:00:05.54 bitrate=1980.1kbits/s speed=0.105x    frame=  136 fps=2.5 q=-0.0 size=    1340kB time=00:00:05.62 bitrate=1950.9kbits/s speed=0.105x    frame=  138 fps=2.5 q=-0.0 size=    1395kB time=00:00:05.70 bitrate=2001.8kbits/s speed=0.105x    frame=  140 fps=2.5 q=-0.0 size=    1395kB time=00:00:05.79 bitrate=1972.8kbits/s speed=0.105x    frame=  142 fps=2.5 q=-0.0 size=    1395kB time=00:00:05.87 bitrate=1944.9kbits/s speed=0.105x    frame=  144 fps=2.5 q=-0.0 size=    1395kB time=00:00:05.95 bitrate=1917.9kbits/s speed=0.105x    frame=  146 fps=2.5 q=-0.0 size=    1395kB time=00:00:06.04 bitrate=1891.2kbits/s speed=0.105x    frame=  148 fps=2.6 q=-0.0 size=    1395kB time=00:00:06.12 bitrate=1865.6kbits/s speed=0.106x    frame=  150 fps=2.6 q=-0.0 size=    1395kB time=00:00:06.20 bitrate=1840.6kbits/s speed=0.106x    frame=  152 fps=2.6 q=-0.0 size=    1395kB time=00:00:06.29 bitrate=1816.1kbits/s speed=0.106x    frame=  154 fps=2.6 q=-0.0 size=    1500kB time=00:00:06.37 bitrate=1927.6kbits/s speed=0.107x    frame=  157 fps=2.6 q=-0.0 size=    1554kB time=00:00:06.50 bitrate=1958.1kbits/s speed=0.107x    frame=  159 fps=2.6 q=-0.0 size=    1554kB time=00:00:06.58 bitrate=1933.4kbits/s speed=0.107x    frame=  161 fps=2.6 q=-0.0 size=    1554kB time=00:00:06.66 bitrate=1909.0kbits/s speed=0.107x    frame=  163 fps=2.6 q=-0.0 size=    1586kB time=00:00:06.75 bitrate=1924.3kbits/s speed=0.107x    frame=  165 fps=2.6 q=-0.0 size=    1586kB time=00:00:06.83 bitrate=1900.9kbits/s speed=0.108x    frame=  167 fps=2.6 q=-0.0 size=    1620kB time=00:00:06.91 bitrate=1918.5kbits/s speed=0.108x    frame=  169 fps=2.6 q=-0.0 size=    1620kB time=00:00:07.00 bitrate=1895.8kbits/s speed=0.108x    frame=  171 fps=2.6 q=-0.0 size=    1655kB time=00:00:07.08 bitrate=1914.2kbits/s speed=0.108x    frame=  173 fps=2.6 q=-0.0 size=    1655kB time=00:00:07.16 bitrate=1891.7kbits/s speed=0.108x    frame=  175 fps=2.6 q=-0.0 size=    1690kB time=00:00:07.25 bitrate=1909.6kbits/s speed=0.108x    frame=  177 fps=2.6 q=-0.0 size=    1690kB time=00:00:07.33 bitrate=1887.9kbits/s speed=0.108x    frame=  179 fps=2.6 q=-0.0 size=    1690kB time=00:00:07.41 bitrate=1866.6kbits/s speed=0.108x    frame=  181 fps=2.6 q=-0.0 size=    1723kB time=00:00:07.50 bitrate=1881.8kbits/s speed=0.108x    frame=  183 fps=2.6 q=-0.0 size=    1723kB time=00:00:07.58 bitrate=1861.2kbits/s speed=0.108x    frame=  185 fps=2.6 q=-0.0 size=    1723kB time=00:00:07.66 bitrate=1840.8kbits/s speed=0.108x    frame=  187 fps=2.6 q=-0.0 size=    1758kB time=00:00:07.75 bitrate=1857.9kbits/s speed=0.109x    frame=  189 fps=2.6 q=-0.0 size=    1758kB time=00:00:07.83 bitrate=1838.2kbits/s speed=0.109x    frame=  191 fps=2.6 q=-0.0 size=    1758kB time=00:00:07.91 bitrate=1818.7kbits/s speed=0.109x    frame=  193 fps=2.6 q=-0.0 size=    1758kB time=00:00:08.00 bitrate=1799.8kbits/s speed=0.109x    frame=  195 fps=2.6 q=-0.0 size=    1832kB time=00:00:08.08 bitrate=1856.7kbits/s speed=0.109x    frame=  197 fps=2.6 q=-0.0 size=    1864kB time=00:00:08.16 bitrate=1869.0kbits/s speed=0.109x    frame=  199 fps=2.6 q=-0.0 size=    1864kB time=00:00:08.25 bitrate=1850.2kbits/s speed=0.109x    frame=  201 fps=2.6 q=-0.0 size=    1864kB time=00:00:08.33 bitrate=1831.8kbits/s speed=0.109x    frame=  203 fps=2.6 q=-0.0 size=    1901kB time=00:00:08.41 bitrate=1849.7kbits/s speed=0.109x    frame=  205 fps=2.6 q=-0.0 size=    1901kB time=00:00:08.50 bitrate=1831.6kbits/s speed=0.109x    frame=  207 fps=2.6 q=-0.0 size=    1901kB time=00:00:08.58 bitrate=1813.9kbits/s speed=0.109x    frame=  209 fps=2.6 q=-0.0 size=    1939kB time=00:00:08.66 bitrate=1832.5kbits/s speed=0.109x    frame=  211 fps=2.6 q=-0.0 size=    1939kB time=00:00:08.75 bitrate=1815.2kbits/s speed=0.109x    frame=  213 fps=2.6 q=-0.0 size=    1939kB time=00:00:08.83 bitrate=1798.1kbits/s speed=0.109x    frame=  215 fps=2.6 q=-0.0 size=    1939kB time=00:00:08.91 bitrate=1781.2kbits/s speed=0.109x    frame=  217 fps=2.6 q=-0.0 size=    1939kB time=00:00:09.00 bitrate=1764.7kbits/s speed=0.11x    frame=  219 fps=2.6 q=-0.0 size=    1939kB time=00:00:09.08 bitrate=1748.6kbits/s speed=0.11x    frame=  221 fps=2.7 q=-0.0 size=    1939kB time=00:00:09.16 bitrate=1732.6kbits/s speed=0.11x    frame=  223 fps=2.7 q=-0.0 size=    1939kB time=00:00:09.25 bitrate=1717.1kbits/s speed=0.11x    frame=  226 fps=2.7 q=-0.0 size=    2071kB time=00:00:09.37 bitrate=1809.7kbits/s speed=0.111x    frame=  228 fps=2.7 q=-0.0 size=    2071kB time=00:00:09.45 bitrate=1793.9kbits/s speed=0.111x    frame=  230 fps=2.7 q=-0.0 size=    2071kB time=00:00:09.54 bitrate=1778.1kbits/s speed=0.111x    frame=  232 fps=2.7 q=-0.0 size=    2071kB time=00:00:09.62 bitrate=1762.7kbits/s speed=0.111x    frame=  234 fps=2.7 q=-0.0 size=    2071kB time=00:00:09.70 bitrate=1747.7kbits/s speed=0.112x    frame=  236 fps=2.7 q=-0.0 size=    2123kB time=00:00:09.79 bitrate=1775.8kbits/s speed=0.112x    frame=  239 fps=2.7 q=-0.0 size=    2123kB time=00:00:09.91 bitrate=1753.5kbits/s speed=0.112x    frame=  241 fps=2.7 q=-0.0 size=    2123kB time=00:00:10.00 bitrate=1738.9kbits/s speed=0.112x    frame=  243 fps=2.7 q=-0.0 size=    2123kB time=00:00:10.08 bitrate=1724.6kbits/s speed=0.113x    frame=  245 fps=2.7 q=-0.0 size=    2123kB time=00:00:10.16 bitrate=1710.4kbits/s speed=0.113x    frame=  247 fps=2.7 q=-0.0 size=    2225kB time=00:00:10.25 bitrate=1778.0kbits/s speed=0.113x    frame=  249 fps=2.7 q=-0.0 size=    2225kB time=00:00:10.33 bitrate=1763.8kbits/s speed=0.113x    frame=  251 fps=2.7 q=-0.0 size=    2225kB time=00:00:10.41 bitrate=1749.5kbits/s speed=0.113x    frame=  253 fps=2.7 q=-0.0 size=    2225kB time=00:00:10.50 bitrate=1735.7kbits/s speed=0.113x    frame=  255 fps=2.7 q=-0.0 size=    2225kB time=00:00:10.58 bitrate=1722.1kbits/s speed=0.113x    frame=  257 fps=2.7 q=-0.0 size=    2225kB time=00:00:10.66 bitrate=1708.5kbits/s speed=0.113x    frame=  259 fps=2.7 q=-0.0 size=    2225kB time=00:00:10.75 bitrate=1695.3kbits/s speed=0.113x    frame=  261 fps=2.7 q=-0.0 size=    2225kB time=00:00:10.83 bitrate=1682.4kbits/s speed=0.113x    frame=  264 fps=2.7 q=-0.0 size=    2330kB time=00:00:10.95 bitrate=1741.7kbits/s speed=0.114x    frame=  266 fps=2.7 q=-0.0 size=    2330kB time=00:00:11.04 bitrate=1728.4kbits/s speed=0.114x    frame=  268 fps=2.7 q=-0.0 size=    2330kB time=00:00:11.12 bitrate=1715.5kbits/s speed=0.114x    frame=  270 fps=2.7 q=-0.0 size=    2330kB time=00:00:11.20 bitrate=1702.8kbits/s speed=0.114x    frame=  272 fps=2.7 q=-0.0 size=    2330kB time=00:00:11.29 bitrate=1690.1kbits/s speed=0.114x    frame=  274 fps=2.8 q=-0.0 size=    2437kB time=00:00:11.37 bitrate=1754.8kbits/s speed=0.114x    frame=  277 fps=2.8 q=-0.0 size=    2437kB time=00:00:11.50 bitrate=1735.8kbits/s speed=0.115x    frame=  279 fps=2.8 q=-0.0 size=    2437kB time=00:00:11.58 bitrate=1723.3kbits/s speed=0.115x    frame=  281 fps=2.8 q=-0.0 size=    2437kB time=00:00:11.66 bitrate=1710.9kbits/s speed=0.115x    frame=  283 fps=2.8 q=-0.0 size=    2437kB time=00:00:11.75 bitrate=1698.8kbits/s speed=0.115x    frame=  285 fps=2.8 q=-0.0 size=    2437kB time=00:00:11.83 bitrate=1686.9kbits/s speed=0.115x    frame=  288 fps=2.8 q=-0.0 size=    2529kB time=00:00:11.95 bitrate=1732.5kbits/s speed=0.116x    frame=  290 fps=2.8 q=-0.0 size=    2529kB time=00:00:12.04 bitrate=1720.4kbits/s speed=0.116x    frame=  292 fps=2.8 q=-0.0 size=    2529kB time=00:00:12.12 bitrate=1708.6kbits/s speed=0.116x    frame=  294 fps=2.8 q=-0.0 size=    2529kB time=00:00:12.20 bitrate=1697.0kbits/s speed=0.116x    frame=  296 fps=2.8 q=-0.0 size=    2529kB time=00:00:12.29 bitrate=1685.4kbits/s speed=0.116x    frame=  298 fps=2.8 q=-0.0 size=    2626kB time=00:00:12.37 bitrate=1738.2kbits/s speed=0.117x    frame=  301 fps=2.8 q=-0.0 size=    2626kB time=00:00:12.50 bitrate=1720.8kbits/s speed=0.117x    frame=  303 fps=2.8 q=-0.0 size=    2626kB time=00:00:12.58 bitrate=1709.4kbits/s speed=0.117x    frame=  305 fps=2.8 q=-0.0 size=    2626kB time=00:00:12.66 bitrate=1698.1kbits/s speed=0.117x    frame=  307 fps=2.8 q=-0.0 size=    2626kB time=00:00:12.75 bitrate=1687.1kbits/s speed=0.117x    frame=  309 fps=2.8 q=-0.0 size=    2626kB time=00:00:12.83 bitrate=1676.1kbits/s speed=0.118x    frame=  312 fps=2.8 q=-0.0 size=    2721kB time=00:00:12.95 bitrate=1720.3kbits/s speed=0.118x    frame=  314 fps=2.8 q=-0.0 size=    2721kB time=00:00:13.04 bitrate=1709.2kbits/s speed=0.118x    frame=  316 fps=2.8 q=-0.0 size=    2721kB time=00:00:13.12 bitrate=1698.4kbits/s speed=0.118x    frame=  318 fps=2.9 q=-0.0 size=    2721kB time=00:00:13.20 bitrate=1687.7kbits/s speed=0.118x    frame=  320 fps=2.9 q=-0.0 size=    2721kB time=00:00:13.29 bitrate=1677.1kbits/s speed=0.119x    frame=  322 fps=2.9 q=-0.0 size=    2817kB time=00:00:13.37 bitrate=1725.1kbits/s speed=0.119x    frame=  325 fps=2.9 q=-0.0 size=    2817kB time=00:00:13.50 bitrate=1709.1kbits/s speed=0.119x    frame=  327 fps=2.9 q=-0.0 size=    2817kB time=00:00:13.58 bitrate=1698.7kbits/s speed=0.119x    frame=  329 fps=2.9 q=-0.0 size=    2817kB time=00:00:13.66 bitrate=1688.2kbits/s speed=0.119x    frame=  331 fps=2.9 q=-0.0 size=    2817kB time=00:00:13.75 bitrate=1678.0kbits/s speed=0.12x    frame=  333 fps=2.9 q=-0.0 size=    2817kB time=00:00:13.83 bitrate=1668.0kbits/s speed=0.12x    frame=  336 fps=2.9 q=-0.0 size=    2913kB time=00:00:13.95 bitrate=1709.5kbits/s speed=0.12x    frame=  338 fps=2.9 q=-0.0 size=    2913kB time=00:00:14.04 bitrate=1699.2kbits/s speed=0.12x    frame=  340 fps=2.9 q=-0.0 size=    2913kB time=00:00:14.12 bitrate=1689.2kbits/s speed=0.12x    frame=  342 fps=2.9 q=-0.0 size=    2913kB time=00:00:14.20 bitrate=1679.4kbits/s speed=0.12x    frame=  344 fps=2.9 q=-0.0 size=    2913kB time=00:00:14.29 bitrate=1669.5kbits/s speed=0.121x    frame=  346 fps=2.9 q=-0.0 size=    2976kB time=00:00:14.37 bitrate=1695.9kbits/s speed=0.121x    frame=  349 fps=2.9 q=-0.0 size=    2976kB time=00:00:14.50 bitrate=1681.3kbits/s speed=0.121x    frame=  351 fps=2.9 q=-0.0 size=    2976kB time=00:00:14.58 bitrate=1671.7kbits/s speed=0.121x    frame=  353 fps=2.9 q=-0.0 size=    2976kB time=00:00:14.66 bitrate=1662.2kbits/s speed=0.121x    frame=  355 fps=2.9 q=-0.0 size=    2976kB time=00:00:14.75 bitrate=1652.8kbits/s speed=0.121x    frame=  357 fps=2.9 q=-0.0 size=    2976kB time=00:00:14.83 bitrate=1643.6kbits/s speed=0.122x    frame=  360 fps=2.9 q=-0.0 size=    3088kB time=00:00:14.95 bitrate=1691.1kbits/s speed=0.122x    frame=  362 fps=2.9 q=-0.0 size=    3088kB time=00:00:15.04 bitrate=1681.6kbits/s speed=0.122x    frame=  364 fps=2.9 q=-0.0 size=    3153kB time=00:00:15.12 bitrate=1707.5kbits/s speed=0.122x    frame=  366 fps=2.9 q=-0.0 size=    3153kB time=00:00:15.20 bitrate=1698.2kbits/s speed=0.122x    frame=  368 fps=2.9 q=-0.0 size=    3153kB time=00:00:15.29 bitrate=1688.8kbits/s speed=0.122x    frame=  370 fps=2.9 q=-0.0 size=    3153kB time=00:00:15.37 bitrate=1679.7kbits/s speed=0.122x    frame=  372 fps=2.9 q=-0.0 size=    3153kB time=00:00:15.45 bitrate=1670.7kbits/s speed=0.122x    frame=  374 fps=2.9 q=-0.0 size=    3153kB time=00:00:15.54 bitrate=1661.7kbits/s speed=0.122x    frame=  376 fps=2.9 q=-0.0 size=    3153kB time=00:00:15.62 bitrate=1652.8kbits/s speed=0.122x    frame=  378 fps=2.9 q=-0.0 size=    3153kB time=00:00:15.70 bitrate=1644.1kbits/s speed=0.122x    frame=  380 fps=2.9 q=-0.0 size=    3153kB time=00:00:15.79 bitrate=1635.4kbits/s speed=0.122x    frame=  383 fps=2.9 q=-0.0 size=    3272kB time=00:00:15.91 bitrate=1683.8kbits/s speed=0.122x    frame=  385 fps=2.9 q=-0.0 size=    3272kB time=00:00:16.00 bitrate=1675.1kbits/s speed=0.122x    frame=  387 fps=2.9 q=-0.0 size=    3272kB time=00:00:16.08 bitrate=1666.5kbits/s speed=0.123x    frame=  389 fps=3.0 q=-0.0 size=    3272kB time=00:00:16.16 bitrate=1657.8kbits/s speed=0.123x    frame=  391 fps=3.0 q=-0.0 size=    3272kB time=00:00:16.25 bitrate=1649.3kbits/s speed=0.123x    frame=  393 fps=3.0 q=-0.0 size=    3349kB time=00:00:16.33 bitrate=1679.4kbits/s speed=0.123x    frame=  396 fps=3.0 q=-0.0 size=    3349kB time=00:00:16.45 bitrate=1666.7kbits/s speed=0.123x    frame=  398 fps=3.0 q=-0.0 size=    3349kB time=00:00:16.54 bitrate=1658.2kbits/s speed=0.123x    frame=  400 fps=3.0 q=-0.0 size=    3349kB time=00:00:16.62 bitrate=1649.9kbits/s speed=0.123x    frame=  402 fps=3.0 q=-0.0 size=    3349kB time=00:00:16.70 bitrate=1641.7kbits/s speed=0.123x    frame=  404 fps=3.0 q=-0.0 size=    3349kB time=00:00:16.79 bitrate=1633.5kbits/s speed=0.124x    frame=  407 fps=3.0 q=-0.0 size=    3454kB time=00:00:16.91 bitrate=1672.3kbits/s speed=0.124x    frame=  409 fps=3.0 q=-0.0 size=    3454kB time=00:00:17.00 bitrate=1664.1kbits/s speed=0.124x    frame=  411 fps=3.0 q=-0.0 size=    3454kB time=00:00:17.08 bitrate=1656.0kbits/s speed=0.124x    frame=  413 fps=3.0 q=-0.0 size=    3454kB time=00:00:17.16 bitrate=1647.9kbits/s speed=0.124x    frame=  415 fps=3.0 q=-0.0 size=    3454kB time=00:00:17.25 bitrate=1640.0kbits/s speed=0.124x    frame=  417 fps=3.0 q=-0.0 size=    3540kB time=00:00:17.33 bitrate=1672.8kbits/s speed=0.124x    frame=  420 fps=3.0 q=-0.0 size=    3591kB time=00:00:17.45 bitrate=1684.9kbits/s speed=0.124x    frame=  422 fps=3.0 q=-0.0 size=    3591kB time=00:00:17.54 bitrate=1676.8kbits/s speed=0.124x    frame=  424 fps=3.0 q=-0.0 size=    3591kB time=00:00:17.62 bitrate=1668.9kbits/s speed=0.124x    frame=  426 fps=3.0 q=-0.0 size=    3591kB time=00:00:17.70 bitrate=1661.1kbits/s speed=0.124x    frame=  428 fps=3.0 q=-0.0 size=    3591kB time=00:00:17.79 bitrate=1653.3kbits/s speed=0.124x    frame=  430 fps=3.0 q=-0.0 size=    3591kB time=00:00:17.87 bitrate=1645.6kbits/s speed=0.124x    frame=  432 fps=3.0 q=-0.0 size=    3591kB time=00:00:17.95 bitrate=1638.0kbits/s speed=0.124x    frame=  434 fps=3.0 q=-0.0 size=    3591kB time=00:00:18.04 bitrate=1630.4kbits/s speed=0.125x    frame=  437 fps=3.0 q=-0.0 size=    3675kB time=00:00:18.16 bitrate=1657.2kbits/s speed=0.125x    frame=  439 fps=3.0 q=-0.0 size=    3675kB time=00:00:18.25 bitrate=1649.6kbits/s speed=0.125x    frame=  441 fps=3.0 q=-0.0 size=    3675kB time=00:00:18.33 bitrate=1642.2kbits/s speed=0.125x    frame=  443 fps=3.0 q=-0.0 size=    3675kB time=00:00:18.41 bitrate=1634.7kbits/s speed=0.125x    frame=  445 fps=3.0 q=-0.0 size=    3675kB time=00:00:18.50 bitrate=1627.3kbits/s speed=0.125x    frame=  447 fps=3.0 q=-0.0 size=    3765kB time=00:00:18.58 bitrate=1659.5kbits/s speed=0.125x    frame=  450 fps=3.0 q=-0.0 size=    3765kB time=00:00:18.70 bitrate=1648.4kbits/s speed=0.126x    frame=  452 fps=3.0 q=-0.0 size=    3765kB time=00:00:18.79 bitrate=1641.0kbits/s speed=0.126x    frame=  454 fps=3.0 q=-0.0 size=    3765kB time=00:00:18.87 bitrate=1633.8kbits/s speed=0.126x    frame=  456 fps=3.0 q=-0.0 size=    3765kB time=00:00:18.95 bitrate=1626.6kbits/s speed=0.126x    frame=  458 fps=3.0 q=-0.0 size=    3765kB time=00:00:19.04 bitrate=1619.5kbits/s speed=0.126x    frame=  461 fps=3.0 q=-0.0 size=    3852kB time=00:00:19.16 bitrate=1646.3kbits/s speed=0.126x    frame=  463 fps=3.0 q=-0.0 size=    3852kB time=00:00:19.25 bitrate=1639.2kbits/s speed=0.126x    frame=  465 fps=3.0 q=-0.0 size=    3852kB time=00:00:19.33 bitrate=1632.2kbits/s speed=0.126x    frame=  467 fps=3.0 q=-0.0 size=    3852kB time=00:00:19.41 bitrate=1625.1kbits/s speed=0.126x    frame=  469 fps=3.0 q=-0.0 size=    3852kB time=00:00:19.50 bitrate=1618.2kbits/s speed=0.126x    frame=  471 fps=3.0 q=-0.0 size=    3943kB time=00:00:19.58 bitrate=1649.4kbits/s speed=0.126x    frame=  474 fps=3.0 q=-0.0 size=    3943kB time=00:00:19.70 bitrate=1638.9kbits/s speed=0.127x    frame=  476 fps=3.0 q=-0.0 size=    3943kB time=00:00:19.79 bitrate=1632.0kbits/s speed=0.127x    frame=  478 fps=3.0 q=-0.0 size=    3943kB time=00:00:19.87 bitrate=1625.2kbits/s speed=0.127x    frame=  480 fps=3.1 q=-0.0 size=    3943kB time=00:00:19.95 bitrate=1618.4kbits/s speed=0.127x    frame=  482 fps=3.1 q=-0.0 size=    3943kB time=00:00:20.04 bitrate=1611.6kbits/s speed=0.127x    frame=  485 fps=3.1 q=-0.0 size=    4050kB time=00:00:20.16 bitrate=1645.1kbits/s speed=0.127x    frame=  487 fps=3.1 q=-0.0 size=    4050kB time=00:00:20.25 bitrate=1638.3kbits/s speed=0.127x    frame=  489 fps=3.1 q=-0.0 size=    4050kB time=00:00:20.33 bitrate=1631.7kbits/s speed=0.127x    frame=  491 fps=3.1 q=-0.0 size=    4050kB time=00:00:20.41 bitrate=1624.9kbits/s speed=0.127x    frame=  493 fps=3.1 q=-0.0 size=    4050kB time=00:00:20.50 bitrate=1618.4kbits/s speed=0.127x    frame=  495 fps=3.1 q=-0.0 size=    4141kB time=00:00:20.58 bitrate=1648.1kbits/s speed=0.128x    frame=  498 fps=3.1 q=-0.0 size=    4141kB time=00:00:20.70 bitrate=1638.2kbits/s speed=0.128x    frame=  500 fps=3.1 q=-0.0 size=    4141kB time=00:00:20.79 bitrate=1631.5kbits/s speed=0.128x    frame=  500 fps=3.1 q=-0.0 Lsize=    4203kB time=00:00:20.79 bitrate=1655.8kbits/s speed=0.128x    
video:4191kB audio:0kB subtitle:0kB other streams:0kB global headers:3kB muxing overhead: 0.268851%
bench: utime=143.556s
bench: maxrss=221420kB
